HIERARCHY
ROOT Hips
{
	OFFSET -14.64140 90.27770 -84.91600
	CHANNELS 6 Xposition Yposition Zposition Zrotation Xrotation Yrotation
	JOINT Spine
	{
		OFFSET 0.00000 13.20850 -1.60436
		CHANNELS 3 Zrotation Xrotation Yrotation
		JOINT Spine1
		{
			OFFSET 0.00000 8.61716 0.00000
			CHANNELS 3 Zrotation Xrotation Yrotation
			JOINT Spine2
			{
				OFFSET 0.00000 8.61717 0.00000
				CHANNELS 3 Zrotation Xrotation Yrotation
				JOINT Spine3
				{
					OFFSET 0.00000 8.61717 0.00000
					CHANNELS 3 Zrotation Xrotation Yrotation
					JOINT Neck
					{
						OFFSET 0.00000 11.07920 1.10792
						CHANNELS 3 Zrotation Xrotation Yrotation
						JOINT Neck1
						{
							OFFSET 0.00000 7.08032 0.00000
							CHANNELS 3 Zrotation Xrotation Yrotation
							JOINT Head
							{
								OFFSET 0.00000 7.08031 0.00000
								CHANNELS 3 Zrotation Xrotation Yrotation
								End site
								{
									OFFSET 0.00000 0.00000 0.00000
								}
							}
						}
					}
					JOINT RightShoulder
					{
						OFFSET -0.01000 7.91373 5.19711
						CHANNELS 3 Zrotation Xrotation Yrotation
						JOINT RightArm
						{
							OFFSET -18.41580 0.00000 0.00000
							CHANNELS 3 Zrotation Xrotation Yrotation
							JOINT RightForeArm
							{
								OFFSET -29.11090 0.00000 0.00000
								CHANNELS 3 Zrotation Xrotation Yrotation
								JOINT RightHand
								{
									OFFSET -24.65040 0.00000 0.00000
									CHANNELS 3 Zrotation Xrotation Yrotation
									JOINT RightHandThumb1
									{
										OFFSET -5.35114 -0.85590 3.97906
										CHANNELS 3 Zrotation Xrotation Yrotation
										JOINT RightHandThumb2
										{
											OFFSET -4.52789 0.00000 0.00000
											CHANNELS 3 Zrotation Xrotation Yrotation
											JOINT RightHandThumb3
											{
												OFFSET -2.46976 0.00000 0.00000
												CHANNELS 3 Zrotation Xrotation Yrotation
												End site
												{
													OFFSET 0.00000 0.00000 0.00000
												}
											}
										}
									}
									JOINT RightHandIndex1
									{
										OFFSET -14.26970 0.00000 2.88139
										CHANNELS 3 Zrotation Xrotation Yrotation
										JOINT RightHandIndex2
										{
											OFFSET -5.48836 0.00000 0.00000
											CHANNELS 3 Zrotation Xrotation Yrotation
											JOINT RightHandIndex3
											{
												OFFSET -3.01859 0.00000 0.00000
												CHANNELS 3 Zrotation Xrotation Yrotation
												End site
												{
													OFFSET 0.00000 0.00000 0.00000
												}
											}
										}
									}
									JOINT RightHandMiddle1
									{
										OFFSET -14.26970 0.00000 -0.09147
										CHANNELS 3 Zrotation Xrotation Yrotation
										JOINT RightHandMiddle2
										{
											OFFSET -6.17441 0.00000 0.00000
											CHANNELS 3 Zrotation Xrotation Yrotation
											JOINT RightHandMiddle3
											{
												OFFSET -3.56743 0.00000 0.00000
												CHANNELS 3 Zrotation Xrotation Yrotation
												End site
												{
													OFFSET 0.00000 0.00000 0.00000
												}
											}
										}
									}
									JOINT RightHandRing1
									{
										OFFSET -12.69180 0.00000 -3.06433
										CHANNELS 3 Zrotation Xrotation Yrotation
										JOINT RightHandRing2
										{
											OFFSET -5.62556 0.00000 0.00000
											CHANNELS 3 Zrotation Xrotation Yrotation
											JOINT RightHandRing3
											{
												OFFSET -3.56744 0.00000 0.00000
												CHANNELS 3 Zrotation Xrotation Yrotation
												End site
												{
													OFFSET 0.00000 0.00000 0.00000
												}
											}
										}
									}
									JOINT RightHandPinky1
									{
										OFFSET -11.11390 0.00000 -6.03719
										CHANNELS 3 Zrotation Xrotation Yrotation
										JOINT RightHandPinky2
										{
											OFFSET -4.52789 0.00000 0.00000
											CHANNELS 3 Zrotation Xrotation Yrotation
											JOINT RightHandPinky3
											{
												OFFSET -2.46976 0.00000 0.00000
												CHANNELS 3 Zrotation Xrotation Yrotation
												End site
												{
													OFFSET 0.00000 0.00000 0.00000
												}
											}
										}
									}
								}
							}
						}
					}
					JOINT LeftShoulder
					{
						OFFSET 0.01000 7.91373 5.19711
						CHANNELS 3 Zrotation Xrotation Yrotation
						JOINT LeftArm
						{
							OFFSET 18.41580 0.00000 0.00000
							CHANNELS 3 Zrotation Xrotation Yrotation
							JOINT LeftForeArm
							{
								OFFSET 29.11090 0.00000 0.00000
								CHANNELS 3 Zrotation Xrotation Yrotation
								JOINT LeftHand
								{
									OFFSET 24.65040 0.00000 0.00000
									CHANNELS 3 Zrotation Xrotation Yrotation
									JOINT LeftHandThumb1
									{
										OFFSET 5.35114 -0.85590 3.97906
										CHANNELS 3 Zrotation Xrotation Yrotation
										JOINT LeftHandThumb2
										{
											OFFSET 4.52789 0.00000 0.00000
											CHANNELS 3 Zrotation Xrotation Yrotation
											JOINT LeftHandThumb3
											{
												OFFSET 2.46977 0.00000 0.00000
												CHANNELS 3 Zrotation Xrotation Yrotation
												End site
												{
													OFFSET 0.00000 0.00000 0.00000
												}
											}
										}
									}
									JOINT LeftHandIndex1
									{
										OFFSET 14.26970 0.00000 2.88139
										CHANNELS 3 Zrotation Xrotation Yrotation
										JOINT LeftHandIndex2
										{
											OFFSET 5.48836 0.00000 0.00000
											CHANNELS 3 Zrotation Xrotation Yrotation
											JOINT LeftHandIndex3
											{
												OFFSET 3.01859 0.00000 0.00000
												CHANNELS 3 Zrotation Xrotation Yrotation
												End site
												{
													OFFSET 0.00000 0.00000 0.00000
												}
											}
										}
									}
									JOINT LeftHandMiddle1
									{
										OFFSET 14.26970 0.00000 -0.09147
										CHANNELS 3 Zrotation Xrotation Yrotation
										JOINT LeftHandMiddle2
										{
											OFFSET 6.17440 0.00000 0.00000
											CHANNELS 3 Zrotation Xrotation Yrotation
											JOINT LeftHandMiddle3
											{
												OFFSET 3.56744 0.00000 0.00000
												CHANNELS 3 Zrotation Xrotation Yrotation
												End site
												{
													OFFSET 0.00000 0.00000 0.00000
												}
											}
										}
									}
									JOINT LeftHandRing1
									{
										OFFSET 12.69180 0.00000 -3.06433
										CHANNELS 3 Zrotation Xrotation Yrotation
										JOINT LeftHandRing2
										{
											OFFSET 5.62556 0.00000 0.00000
											CHANNELS 3 Zrotation Xrotation Yrotation
											JOINT LeftHandRing3
											{
												OFFSET 3.56744 0.00000 0.00000
												CHANNELS 3 Zrotation Xrotation Yrotation
												End site
												{
													OFFSET 0.00000 0.00000 0.00000
												}
											}
										}
									}
									JOINT LeftHandPinky1
									{
										OFFSET 11.11390 0.00000 -6.03719
										CHANNELS 3 Zrotation Xrotation Yrotation
										JOINT LeftHandPinky2
										{
											OFFSET 4.52789 0.00000 0.00000
											CHANNELS 3 Zrotation Xrotation Yrotation
											JOINT LeftHandPinky3
											{
												OFFSET 2.46976 0.00000 0.00000
												CHANNELS 3 Zrotation Xrotation Yrotation
												End site
												{
													OFFSET 0.00000 0.00000 0.00000
												}
											}
										}
									}
								}
							}
						}
					}
					JOINT pCube4
					{
						OFFSET 0.00000 10.91090 1.10792
						CHANNELS 3 Zrotation Xrotation Yrotation
						End site
						{
							OFFSET 0.00000 0.00000 0.00000
						}
					}
				}
			}
		}
	}
	JOINT RightUpLeg
	{
		OFFSET -9.98441 0.00000 0.00000
		CHANNELS 3 Zrotation Xrotation Yrotation
		JOINT RightLeg
		{
			OFFSET 0.00000 -42.11790 0.00000
			CHANNELS 3 Zrotation Xrotation Yrotation
			JOINT RightFoot
			{
				OFFSET 0.00000 -45.00020 -0.00001
				CHANNELS 3 Zrotation Xrotation Yrotation
				JOINT RightForeFoot
				{
					OFFSET 0.00000 -3.74820 0.00000
					CHANNELS 3 Zrotation Xrotation Yrotation
					JOINT RightToeBase
					{
						OFFSET 0.00000 0.06325 14.43120
						CHANNELS 3 Zrotation Xrotation Yrotation
						End site
						{
							OFFSET 0.00000 0.00000 0.00000
						}
					}
				}
			}
		}
	}
	JOINT LeftUpLeg
	{
		OFFSET 9.98441 0.00000 0.00000
		CHANNELS 3 Zrotation Xrotation Yrotation
		JOINT LeftLeg
		{
			OFFSET 0.00000 -42.11800 0.00000
			CHANNELS 3 Zrotation Xrotation Yrotation
			JOINT LeftFoot
			{
				OFFSET 0.00000 -45.00070 0.00000
				CHANNELS 3 Zrotation Xrotation Yrotation
				JOINT LeftForeFoot
				{
					OFFSET 0.00000 -3.74824 0.00000
					CHANNELS 3 Zrotation Xrotation Yrotation
					JOINT LeftToeBase
					{
						OFFSET 0.00000 0.06325 14.43110
						CHANNELS 3 Zrotation Xrotation Yrotation
						End site
						{
							OFFSET 0.00000 0.00000 0.00000
						}
					}
				}
			}
		}
	}
}
MOTION
Frames: 4
Frame Time: 0.050000
0.015942318695913605 -0.047251532344841904 -0.008518744240989697 -0.037325144464029 -0.0054643683460953605 -2.546820825643842e-05 -3.2975983171017527 0.984758806851348 -0.830416845860438 -0.9524818752274712 3.5172089133685036 0.2946210825179054 -1.0903244946690744 -1.7891933106546682 -3.58721993620622 0.46525778903597065 0.5008636938055617 -1.1828123761889389 -0.6859259903476044 11.559518549446818 0.576750239260826 -0.21766995851327672 -1.0357887582065373 1.195452519698057 -0.3137389071433597 -16.81051727697633 0.1314339656577791 -4.2129353702260435 1.6209554667646577 -12.954282890345628 70.92873764748302 20.18997031841373 10.007309011414742 17.078623656784043 3.829193532926698 73.21869795378554 16.19912004642083 -0.34017147972810474 -3.5976719374507846 4.5372346424036145 -0.09378602772644906 -1.6153426393255692 -0.01729354146234451 -0.018166886252026844 -56.221014291672454 0.03710189756248705 0.009755700947932343 -56.24283220835484 -38.79738443144829 -0.0494875596070339 -0.003216415461653782 -0.014321874771380822 0.004113705843591074 -0.017052711216049083 -0.04313237536847408 0.021735250882008374 -0.029422379124442413 -36.667771446507366 -0.006411724654088988 0.013441357120996752 -0.003195349096213359 0.025604433568095636 -0.047237070618532384 0.022442212640791586 -0.00567015649559304 -0.04204970659283638 -19.7999046790808 -0.008985090484546664 -0.040380627545815805 -0.008289142954057369 -0.04468403241933559 0.04193870195147393 0.029752157353204002 -0.007603719431229841 -0.030576820272193633 24.03711757091178 -0.03172671550750943 0.03822107571976522 28.89459736048076 0.009347549690551024 0.04489089926905981 28.834328748808424 -0.04756209210795946 -0.027263807026631382 8.517495471062599 1.9012098021590649 10.075349803928743 -64.03553766325085 21.305047301917735 -29.062874522085263 -44.91840717888729 0.39804834415704343 -74.81597278317467 -11.734332915866371 -4.299614317573539 3.4595451322298705 -0.43599381447979246 0.07177864199921971 -8.107300339787784 0.03228309282779945 0.0005857145289028633 44.57239862371379 0.013733878993576152 0.021824257214564238 44.60435931639022 12.473738449572618 -0.00328938585965655 0.025425415017223212 0.012846079851415325 -0.023268275762000246 -0.04769171158115126 0.02041596867409556 0.016273298191498684 0.01867772742179991 11.10321019271835 -0.028413822357186133 0.04260589812420451 -0.043595173844507715 -0.009783474227497495 0.018549605071374337 -0.007603479267625078 -0.008681699791685604 0.02833972576179296 4.810006438215587 -0.006773818079905751 0.04748044285232006 -0.00967963520671683 0.03383826793986565 -0.02133174625741128 0.012034661112992675 0.02505096047312858 -0.026741376881571514 -5.575795499731549 -0.026461096204739024 -0.005914653987497327 -6.722631994227011 0.03577290654640377 -0.022861599758097925 -6.770827979179448 0.033204138357550476 -0.019938925922973284 -0.024081755330789434 0.023591939536205364 0.03679618779214255 8.019264063151684 3.4961753824958963 -19.203606237880816 0.04669352274120688 10.351806329117768 0.016489399685731744 -5.663249267721269 -15.70623206066921 3.148580636010959 0.04214582282644375 -0.04373021861845276 -0.043756414744101906 0.04807061576042683 4.66972044567628 0.0003094471881663705 12.453720367238551 -8.265151260827798 6.833596422955462 -0.04588562282996992 46.33678862013606 -0.014178087194374783 -4.3165757248811065 -14.74105790569127 -3.8086410120414658 -0.014687909428642952 0.01416431052804998 -0.014297785280895358 0.028565528030950877 -10.723773700324816 -0.002363665143993857 
0.017354053687866782 0.03578655311656497 0.03987469263451293 -0.01756860960805155 0.04771792500325757 -0.04613656734429328 -3.399472967966002 0.8873554396254075 -0.8367778764107449 -0.9526418769321702 3.551800716637367 0.37010405086526965 -1.1252568291580451 -1.797936082732013 -3.6580453309200913 0.4597445229911247 0.44245245940449984 -1.1913886877578979 -0.6677594626633543 11.514561012220488 0.5877724156490882 -0.17803920357571926 -1.0110510459538677 1.358051158620778 -0.3822956507878781 -16.755718208167327 0.08315053373108897 -4.1264182312927655 1.5761001410487006 -12.861745532792174 71.11072449907884 20.225072220634235 10.377568930864808 19.7550644262934 3.7278453851956757 73.90785272979 16.224128179491533 -0.3250885199451042 -3.637693682774631 4.503273457086601 -0.11654910761099983 -1.6425954724905016 0.04617868482175802 -0.018806233855335072 -56.209071505504006 0.031243838504977802 -0.028127712764970073 -56.28258819519752 -38.79055891329874 0.01414485247181747 -0.032055304919040364 -0.01744257574735567 0.0006833733449982141 -0.028038568636951332 -0.04378018518435503 -0.030928791627845748 0.04312458860894453 -36.73840504915744 0.041876940018105255 0.010326253486755426 -0.04544394046435814 -0.04337781341814838 0.03206643281105918 0.005735842284012693 -0.03557218554002517 -0.02982793887862299 -19.72845485146487 -0.04645976904835919 -0.01885529709766928 -0.029931641573216955 -0.03495373500488843 -0.019783494906053082 0.04532417125834576 -0.023672322175373104 0.0009270967624161734 24.07860788336553 -0.031855492375477835 0.02114330302584149 28.829078892445462 0.00014662268034850573 -0.02222124962300216 28.89020245765934 0.021685688827055988 0.022005928927593465 8.499621208305534 1.8661202361951534 10.003363733572709 -63.96326546777067 21.08573747057232 -29.474216846333466 -48.63436692194593 1.6255201521125604 -76.51677632844546 -12.104847094287868 -4.322695478864144 3.536004330328658 -0.4772242764018232 0.03069438679849898 -8.140623904114328 0.026758318310149267 -0.020852469211035608 44.52837486919629 0.04637306050112962 -0.03985572429852239 44.599180906418354 12.506154488815298 -0.005960777199187744 -0.013336621584120035 -0.02703727605361904 0.009004705339544929 0.027814756681709518 0.0033516966590408075 0.04648657985891959 0.04561140014315934 11.082804179371678 -0.039043693356700514 0.00956206985419143 0.007645147136720245 -0.004769124210595631 0.003811486969557859 0.010362548959240922 0.004209792813284332 -0.04748456134139178 4.739191380701506 -0.022372747429297922 -0.038249316503786976 0.002034840922283905 -0.03122050848566454 0.005239661951415519 -0.011125003591615943 -0.024513117950910452 -0.0017115185768489403 -5.627317529872203 0.005858948702708 -0.0471731264354304 -6.7266777651805745 0.021262616800098767 0.008242993433371265 -6.748159432999872 -0.0019857949705382122 -0.00538577780842613 -0.003736334232431555 -0.016412943428572198 0.016449183860670784 8.067105562259153 3.464055763260248 -19.212244684482084 -0.0015033556006136754 10.444505802124965 -0.0037911362838063747 -5.634650184848055 -15.657005154742235 3.163223066259522 -0.01342414019608075 -0.028510032879284764 -0.045834818793438335 -0.04769051822888131 4.743389040691576 0.01912221502409014 12.443347825203698 -8.27665637437037 6.8429295600972635 0.022754699361884644 46.34133223373354 -0.04281862543984935 -4.320009815988539 -14.75430323598302 -3.814020574854927 0.013055337789501626 -0.04887726777667718 0.019405181502510506 -0.01306826937141858 -10.786358918611105 0.03234027987969846 
-0.030598502608583142 -0.02344574471767723 0.043261225652555295 0.039880950079896914 0.008911860797817877 0.03840329255482348 -3.392876517436155 0.8220514523698199 -0.826660121430207 -0.9993548076449164 3.548487191767176 0.37511361310545016 -1.0827766971367905 -1.7778337489465486 -3.576921173145683 0.4741798501083858 0.4432569843025542 -1.1824556704151807 -0.6660184082026478 11.494805059070773 0.6118057514382411 -0.15969678363818376 -0.9996409192261487 1.306610130851375 -0.31575843373658613 -16.716241184696866 0.09702175084004333 -4.183698307178308 1.60201037852139 -12.910781416519216 71.19579158615655 19.816467148478818 10.47848532955738 20.855709451487435 3.439311815558232 73.37687042787755 16.405190936600665 -0.3510629435282224 -3.874484964412941 4.555629996965863 -0.13851008525884903 -1.6356941825448 -0.023175625928318275 -0.009619894356092826 -56.190324902229136 -0.04276061463819207 0.00840824115626114 -56.25870872884009 -38.78731970379517 -0.02011779735021259 -0.024173617596190276 0.02156106550115311 -0.025858813101869504 0.012403184615286247 -0.031955276457737866 0.020062673920497733 -0.030774867399018815 -36.691159937961 0.03201357323100487 0.011175387934811692 0.01818408066912397 0.037667339954207166 0.035856498314036915 0.0403861582936634 0.02394638790652608 0.0002939167760504739 -19.7769193081128 0.04344608569527192 0.011463647939373786 -0.010660204575403157 -0.022220563156795055 -0.020603630865106252 -0.03690045274682062 0.016238607492719465 -0.032547881402156136 24.064423505952522 0.01918814755917744 0.04267747699453978 28.83742473150685 0.015647553078746986 -0.038985403833497204 28.874038803735782 -0.02146045397383472 -0.009174585433782391 8.471894813073535 1.8838186570449766 10.012210494513502 -63.871356510989706 21.116506657469568 -29.431338449285786 -50.92048828985396 1.7604589412326628 -77.53488375683692 -12.321563781681485 -4.593505544811525 3.7475050602845026 -0.4632902475625887 0.05977711544505152 -8.137903026585393 -0.03836422296229444 0.01381179018915826 44.595942883679996 -0.018047952672796335 -0.012102266863820975 44.55032712483159 12.448670310177405 0.03554647171551043 0.00562507914865545 0.00556100111907223 0.027046344662923206 -0.008601067253857004 -0.019344901011844846 0.02504701901852601 0.02704125845494621 11.146614150114633 0.01164588893064769 0.021916277714811336 -0.005293990530682263 0.009681080624246056 0.03194017586957907 -0.037258154616577964 -0.04925464686072562 0.02688737105376107 4.810585962410325 -0.0323296931184908 0.008014563237978537 0.03299177907145815 -0.023632336053285852 0.022758159848771622 -0.047410051257047704 -0.03750775500768204 0.025491607812165903 -5.577124675654636 0.010592279749355936 0.04326423544979157 -6.749087575593458 -0.02149200127133983 0.024360065630063578 -6.761684551367037 0.03953585576856091 0.022035200056978524 0.007605375147688012 -0.008134270645798395 -0.03883966755833848 8.042421367847844 3.4607180546521135 -19.174283833158846 -0.03177443995482352 10.410515161135576 0.02703259194137726 -5.660656762799937 -15.69626382573438 3.158627149338713 0.014863788706196514 0.019457383585858374 -0.03185495374557557 0.03415016774891804 4.68179132184439 0.03726115758684661 12.42427281326529 -8.280878865445391 6.862043344738166 -0.04853531358532366 46.36100845882345 -0.03830795251113066 -4.340413874351798 -14.701112211544439 -3.8242696452632896 -0.040892849624870595 0.036662120592936186 0.014271289713841919 -0.00664005878825962 -10.726174263981887 -0.0486104562310371 
0.0317060307454351 -0.04130381752805713 -0.025211112517616985 0.005003143821096774 0.028685494761669816 -0.03331821344737533 -3.369288548796089 0.8762913850871861 -0.7722326297910609 -0.9379837747569568 3.4918367963589767 0.3698170520461338 -1.1253530523134077 -1.804675426865607 -3.528855534856337 0.4215264642135132 0.44005244002134514 -1.2196304645376463 -0.6825372226533006 11.490575466059537 0.5910973640341046 -0.16929193619628627 -0.9971138774486102 1.174176402295837 -0.3369278832739141 -16.70654917950702 0.12188052976403528 -4.299207855899568 1.5621967842599356 -12.94032817046719 71.26128769733238 19.098689954260923 10.589953661598436 21.47712397165492 2.7189342459195798 72.1487408295657 16.706747259553445 -0.36049020187858083 -4.003753864902651 4.564188881900994 -0.11348834744706335 -1.6325474464657557 -0.005270677887306511 0.03856708498843048 -56.18606628140839 -0.0496833299625653 -0.018486385304096766 -56.19932166652176 -38.81048488134637 -0.03172187265415637 -0.03193060550299346 -0.034833398901431126 -0.0063259999141510774 -0.04010932906044186 -0.004612929299023853 0.03511674125424014 -0.041167555977536484 -36.721522008734674 -0.026816125907239693 -0.020064188377544485 0.047845078600175395 0.04449424709273372 -0.029284896031968613 -0.022441500997239707 -0.015273418648725908 -0.03173937995385173 -19.730526300215534 -0.04514505197043462 -0.00820539215286848 0.0103090434531134 -0.021726918169523695 0.025116836645406187 0.0036343465558458443 -0.04017311151702581 0.009439383952832408 24.063635347073127 0.011356959589914095 -0.008270582263526621 28.901412989278725 0.019883816579527504 -0.0329943516544206 28.833069929260773 -0.02413133788500606 -0.01604470424386643 8.52744667002821 1.8394849103331927 10.064463507143563 -63.825780526677335 21.19131043839139 -29.1781094030133 -51.78362350779796 1.061823485522313 -78.16669050258676 -12.216652424701342 -5.013487348611745 4.079047261082666 -0.4937195385103395 0.10076933401076964 -8.103207307799465 0.0174650965520502 -0.017693474940791126 44.5648265306337 0.04059014736719273 0.01646111587199205 44.52870983334518 12.426765971793683 -0.04716142649076381 0.020091669163885818 -0.01951751735375495 -0.00029443552976719974 -0.017601214890077908 -0.017225571654832347 -0.03157177843004557 -0.016998642095368555 11.064584011937157 0.026214969461873638 0.012087251925926216 0.025108189669320092 0.00031446670142832174 0.04236490686053897 0.039578186857963785 0.04712829869380089 -0.03710847691434386 4.730052691771425 0.03704979702609081 0.0240584778139655 -0.03527082208485175 0.0009791049274472379 -0.0034373638139431595 -0.012617182594605396 -0.03485756453614866 -0.0011208665859753968 -5.622156974768029 -0.03256928443703255 0.007115861576255757 -6.690640995845653 -0.010944724597056907 -0.04519926006193094 -6.756369731082084 -0.009662119921230923 0.03893817261704631 -0.0030844242082132553 0.04657772029371114 -0.015512254776549614 7.995386609799245 3.534343386074519 -19.24223084714122 -0.032396458940183774 10.357667397444716 0.03703382223446318 -5.581355906579298 -15.645060221626492 3.1635583896689825 0.03363341069159395 0.03351755406285226 -0.020279495565775577 0.02801030275032679 4.741812258305616 0.029663544012708626 12.428978855052014 -8.250890599744945 6.891033425839255 0.02436247378677815 46.42843179199904 -0.01088779959350176 -4.332671025727462 -14.731863491904777 -3.799266825420348 0.016485206330215538 0.0032271048531669223 -0.008121185261074283 0.03409783862780775 -10.782591516981698 -0.024589185343699683 
